<?xml version="1.0" encoding="iso-8859-1"?>
<!-- Uploaded to: SVG Repo, www.svgrepo.com, Generator: SVG Repo Mixer Tools -->
<svg fill="#000000" height="800px" width="800px" version="1.1" id="Layer_1" xmlns="http://www.w3.org/2000/svg" xmlns:xlink="http://www.w3.org/1999/xlink" 
	 viewBox="0 0 511.999 511.999" xml:space="preserve">
<g>
	<g>
		<g>
			<path d="M509.472,379.536l-14.849-23.362V220.638c0-0.006-0.001-0.012-0.001-0.019c-0.009-6.084-3.164-11.654-8.122-14.833
				L256.836,58.496c-5.809-3.725-13.251-3.725-19.058,0L8.114,205.786c-10.827,6.942-10.811,22.785,0.001,29.718L237.778,382.78
				c5.807,3.723,13.251,3.725,19.058,0l202.483-129.847v103.24l-14.85,23.363c-3.37,5.301-3.37,12.074,0,17.375l18.832,29.629
				c6.359,10.007,20.988,9.992,27.337,0l18.832-29.629C512.841,391.61,512.841,384.839,509.472,379.536z"/>
			<path d="M395.16,315.045l-128.795,82.592c-11.614,7.447-26.493,7.453-38.116,0.001L99.454,315.045
				c-3.916-2.511-9.06,0.301-9.06,4.953v77.165c0,78.581,313.828,79.106,313.828,0v-77.165
				C404.221,315.347,399.077,312.534,395.16,315.045z"/>
		</g>
	</g>
</g>
</svg>