<?xml version="1.0" encoding="utf-8"?><!-- Uploaded to: SVG Repo, www.svgrepo.com, Generator: SVG Repo Mixer Tools -->
<svg width="800px" height="800px" viewBox="0 0 24 24" fill="none" xmlns="http://www.w3.org/2000/svg">
<path fill-rule="evenodd" clip-rule="evenodd" d="M12.4493 3.07772C12.1667 2.93543 11.8333 2.93535 11.5505 3.07751L0.550856 8.60778C-0.182453 8.97646 -0.18386 10.0228 0.548455 10.3934L5 12.6465V17C5 19.2091 6.79086 21 9 21H15C17.2091 21 19 19.2091 19 17V12.6352L22 11.124V14C22 14.5523 22.4477 15 23 15C23.5523 15 24 14.5523 24 14V9.62991C24 9.20695 23.8394 8.81077 23.4424 8.61095C19.7781 6.76658 16.1137 4.92212 12.4493 3.07772ZM11.9995 5.09035L3.22034 9.5042L11.9742 13.9349L20.7693 9.50453L11.9995 5.09035ZM7 17V13.6588L11.5216 15.9474C11.8049 16.0908 12.1394 16.0911 12.423 15.9482L17 13.6427V17C17 18.1046 16.1046 19 15 19H9C7.89543 19 7 18.1046 7 17Z" fill="#0F0F0F"/>
</svg>